# xmcd CD database file
#
# Track frame offsets:
#	150
#	20832
#	40752
#	67387
#	85720
#	101300
#	121215
#	134572
#	154287
#	177640
#	199467
#	223632
#	248590
#	271330
#
# Disc length: 3854 seconds
#
# Revision: 0
# Processed by: cddbd v1.5PL3 Copyright (c) Steve Scherf et al.
# Submitted via: CDex 1.51
#
DISCID=d20f0c0e
DTITLE=小林　明子 - IN CONCERT - a Changing -
DYEAR=1900
DGENRE=ジャズ (日本)
TTITLE0=アリスは迷子
TTITLE1=雨の日曜日
TTITLE2=恋におちて - Fall in love -
TTITLE3=This Masquerde
TTITLE4=It's So Easy
TTITLE5=Do You Remember Me?
TTITLE6=Facy Free(instrumental)
TTITLE7=くちびるスウィング
TTITLE8=ダイアリー
TTITLE9=心みだれて
TTITLE10=優しくだまして
TTITLE11=Misuderstandings
TTITLE12=こころの炎 -Somewhere out there -
TTITLE13=真実
EXTD=
EXTT0=
EXTT1=
EXTT2=
EXTT3=
EXTT4=
EXTT5=
EXTT6=
EXTT7=
EXTT8=
EXTT9=
EXTT10=
EXTT11=
EXTT12=
EXTT13=
PLAYORDER=
